<mxfile host="Electron" agent="Mozilla/5.0 (Macintosh; Intel Mac OS X 10_15_7) AppleWebKit/537.36 (KHTML, like Gecko) draw.io/24.7.5 Chrome/126.0.6478.183 Electron/31.3.0 Safari/537.36" version="24.7.5" pages="2">
  <diagram id="GPhyTtt9KW2wXN4Q45sB" name="Page-1">
    <mxGraphModel dx="1318" dy="812" grid="1" gridSize="10" guides="1" tooltips="1" connect="1" arrows="1" fold="1" page="1" pageScale="1" pageWidth="1169" pageHeight="827" math="0" shadow="0">
      <root>
        <mxCell id="0" />
        <mxCell id="1" parent="0" />
        <mxCell id="3_Q60njlWm2Z8ZccXWiz-11" value="" style="group" vertex="1" connectable="0" parent="1">
          <mxGeometry x="520" y="352" width="111" height="30" as="geometry" />
        </mxCell>
        <mxCell id="3_Q60njlWm2Z8ZccXWiz-10" value="" style="group" vertex="1" connectable="0" parent="3_Q60njlWm2Z8ZccXWiz-11">
          <mxGeometry width="111" height="30" as="geometry" />
        </mxCell>
        <mxCell id="3_Q60njlWm2Z8ZccXWiz-3" value="" style="group" vertex="1" connectable="0" parent="3_Q60njlWm2Z8ZccXWiz-10">
          <mxGeometry width="80" height="30" as="geometry" />
        </mxCell>
        <mxCell id="3_Q60njlWm2Z8ZccXWiz-1" value="" style="shape=parallelogram;perimeter=parallelogramPerimeter;whiteSpace=wrap;html=1;rotation=90;" vertex="1" parent="3_Q60njlWm2Z8ZccXWiz-3">
          <mxGeometry width="80" height="30" as="geometry" />
        </mxCell>
        <mxCell id="3_Q60njlWm2Z8ZccXWiz-2" value="&lt;b&gt;&lt;font style=&quot;font-size: 36px&quot;&gt;R&lt;/font&gt;&lt;/b&gt;" style="text;html=1;strokeColor=none;fillColor=none;align=center;verticalAlign=middle;whiteSpace=wrap;rounded=0;" vertex="1" parent="3_Q60njlWm2Z8ZccXWiz-3">
          <mxGeometry x="20" y="2" width="40" height="20" as="geometry" />
        </mxCell>
        <mxCell id="3_Q60njlWm2Z8ZccXWiz-8" value="" style="group" vertex="1" connectable="0" parent="3_Q60njlWm2Z8ZccXWiz-10">
          <mxGeometry x="31" width="80" height="30" as="geometry" />
        </mxCell>
        <mxCell id="3_Q60njlWm2Z8ZccXWiz-5" value="" style="shape=parallelogram;perimeter=parallelogramPerimeter;whiteSpace=wrap;html=1;rotation=90;direction=east;flipV=1;" vertex="1" parent="3_Q60njlWm2Z8ZccXWiz-8">
          <mxGeometry width="80" height="30" as="geometry" />
        </mxCell>
        <mxCell id="3_Q60njlWm2Z8ZccXWiz-6" value="&lt;b&gt;&lt;font style=&quot;font-size: 36px&quot;&gt;R&lt;/font&gt;&lt;/b&gt;" style="text;html=1;strokeColor=none;fillColor=none;align=center;verticalAlign=middle;whiteSpace=wrap;rounded=0;direction=east;rotation=180;" vertex="1" parent="3_Q60njlWm2Z8ZccXWiz-8">
          <mxGeometry x="20" y="7" width="40" height="20" as="geometry" />
        </mxCell>
        <mxCell id="3_Q60njlWm2Z8ZccXWiz-12" value="&lt;b&gt;&lt;font style=&quot;font-size: 36px&quot;&gt;Replicator&lt;/font&gt;&lt;/b&gt;" style="text;html=1;strokeColor=none;fillColor=none;align=center;verticalAlign=middle;whiteSpace=wrap;rounded=0;" vertex="1" parent="1">
          <mxGeometry x="600" y="357" width="200" height="20" as="geometry" />
        </mxCell>
      </root>
    </mxGraphModel>
  </diagram>
  <diagram id="uggX8a83zlzWx8vmTQcb" name="Page-2">
    <mxGraphModel dx="2726" dy="854" grid="1" gridSize="10" guides="1" tooltips="1" connect="1" arrows="1" fold="1" page="1" pageScale="1" pageWidth="1169" pageHeight="827" math="0" shadow="0">
      <root>
        <mxCell id="YsTPFFB9O-CqiqmN0mU6-0" />
        <mxCell id="YsTPFFB9O-CqiqmN0mU6-1" parent="YsTPFFB9O-CqiqmN0mU6-0" />
        <mxCell id="pmen31rhCVbTpI0QnTw0-25" value="" style="shape=image;verticalLabelPosition=bottom;labelBackgroundColor=#ffffff;verticalAlign=top;aspect=fixed;imageAspect=0;image=data:image/png,iVBORw0KGgoAAAANSUhEUgAAAOsAAADWCAMAAAAHMIWUAAAAQlBMVEX///+iu9SbttGattHy9fj7/P2swtjP2+j3+fumvtbz9vnb5O7s8fbk6/LH1eTg6PC2yd3A0OHI1uW3yt3V4OuUsc5zY5OzAAAJx0lEQVR4nOVdWYKrIBAcRUHjvuT+V32jWWyQTUWg59XnjImUDb1UI/n5uRd51lTzOEw9pWWZJGVJaT8NLZu7urj51h7x6NhA0xXJHsufSdK3VZ2HHug1FN3YKzjuOZNymOvQIz6HvGtLK5a8kSnDxjdj9ChPwHea0SzhekzOEv3ypSwLTcOMB0uu8fzQJSWL27oVdUL0TTftq9CEVHi0F6eujG77CE1Lgronjom+6fZNaGoCOpeTV2RbxjSVu/I+pivbZA5N8Y3mRpvGxbb2wPTFNvRMzgc/TFe2ZVAvxfwxXUCmYOlFfbNLkiAdw1D1OH0B2STARG5OjfSDK2wH31SPGHWRHtKyH9qRzSsYG4eJJuQsaa+mrW2LmaX6HliXyQWWoq7GfqF8kCvxaFpmlfqmaTlUFmVo0bD+sIV9qRe9eVy/Q2+7I2pZfVDJIOw2egCZBVE6n5AV8mo6QDft3VMTUZmGQ+gFuag7QvdumWbUDyVNxovFdT5bZyjk3gx50o4j7TsXN2n0dwH3uzGLyqn2zoOzSVW0dmzTydUddyPQP2OnTYrcsFg+d6Uub7pB54AdM12Qt3YC1h2lT61+0Gl7S+OpsEtE3SuNaqqkv03XtBI9Utexp1ZNqJvVAmM4X4bgNmFUWvX+XG0wL1unZDMF1ZR6EEUsKmWHZAsVVU9Cpjm3cLZm84BGfcG8alNHYyml3058ylyFOUl2EvZ6+YP0rHEZY215101S6n3bymzyx9cL2llK1buW96NN3NwMSppDkDCNpIfBsBfDQi57liRUX0VfU/4O7FKYlX258/zzyHgMssgFLyItmYNuTzFomOfL2UayWMvA+wYNKlB78mtlizU0VZNlz4Z9SRLhImBfhTy3+ZI9ZQxJEhreqgv03vhMSiGbwVFQVSXoH8OeiLL7qeKqlrgMraB5YpjdzqyOpY4rUGkHJ2fx7huIE03fEfaWgEY52PsYdl/gpQloDa1UfswXZ2IWcV834SS0kedQxbNz6zEEVh46rkdcy245ROOCNygV6wUH8mLxo1H5pQ90m+bs3ZOoRQSRIczQ5k+2XyJ+Lr7FuuKhmcW2YWNn1ljfH9HOYruvOPmIAkAzi+1GLZo10hm8YJcGHDWs8JlrgtXNaK8ZVixb4/TBH1xbseXhT4SEVKp/j9xYyDb8h4/WDN6hq9tNn534yyN2TC9oqrvUkO0JbWXf3bgT0MQdQ1YshOebtkq5RKM2rCGEHLo4DmgMq40hwkPysEf3OnQrVvc5XnpBYVadK9ZGEXSrdYFm54iGAT8dEDjhFzSTWL19kJ/C0cfWD0Y1V3VSzJs1hldOrfBQG1ZpL94LR54JQ6jDDlHpDHyFdLZtGwBq76ScxPxVOALOC4c9MT/t0XimBZOKqkrZ5mpBPJ5pgTp3UqQT3MOJUOnXQT2J5Y0om3keKzSTWHZ5hncKaz2xzMdyl5MYz5zRoFCqp9Kow0VXVF54gbrYkRWmXPIR6GyD81ArxbIFyy1XLCXOF5qos08TedcUYLTXoHrXRBphuQeDQnzhoZzDksSeUxDjbc0poY6w+1QB1un4lquuGbtfkNANk0g2Hh7BEefEXRpisBehFid2vQ5uW2lsG7esYF+vw5AT8a4BDdSZkyj/Q63J1OCKE/aOGGb+0W580cI+S4SiBL6saYE66IhhhcF/hhnsRWhKWGGewhmAMEP80TVixdQIpk1xb31RQf0epZj9Q67oitcVmmRCEJQm9b+QQF3VicaDXGPf5yOH9P1V6aIE++cxVjkL1JsTNVwxdXIA1FyF/B5yRZk26bgKSSLkikwb/uAUVzStnDyD0HTXC3gd54fRcP1Zz0S1OBAWXEUGmEsg4mo6c0JGO0fKVVO0qqgybt8MJq7qnpUKP1xNh8oPHzyyfJVcQK2OK74es+oafYC8iitv0r72K+K13Ql4NGT5sOGQGA6vxBhEYmQyovblUB5vIS3fPoGtft29b66k+iEG7IpMCtcUrjy+GyPAtMemN1nGne3cKTAT0OmIdmbdqljwcNBtgtG8t7IBpIMgTpGAwz4H/dk/L6pAYINBB1FC/ILude4P4PVok4kFmhdh35w4cXRzxNgC7ALTiuVlGPBoEG1//0DzIuxqPj7HB30uZBtqV2gPsBJVU+icwgz3EmSH/m2ERG+rtDgOaOSYfda7XYyyo6PpXe2b52B5Y8uIVyjPr5IUqVBMDjDU61BZVeZqwZPAJK99odgxIX3PbCt1UC5YlRwjXZAg/Ue5S0/eBlCcNIc7wv5I5RhVwguiDsYIK5VjVMU4WNwIU+IFOzlGXbOBPMvnCB1CNKtaT0I/icU2gCZ4dugnsRB3dCywp07CuWTacLIV7AiFmBdg11ybEoGngjOd4OKOQfwFqhPCF1dWfOs103k2W4jF1tbZUNrOTLCyfYzrDrzbAMQoc2+ZB7I+LMDaBrD4Zc0ct5y44rVt2uJCEHaQ5k7rj6ZYleBAo0LXnPzCdlIOf8Cw1dNu6H/CsLbvZ/wFw9oC7IlB64qtsanKaCsAeyDeO3EYICtG2Hc+iD9Q7lijRt7HOoT/Ke78hdrOGpukePoH7vBg04qRnM17ATl+/dQe3ZYq/ge+eFuyOHvPR7Dtj4p5U0HuJNt5oMiLHb1OVCHYVeCsEhuil8Ybd/k6KAKilItrhy/E5VuQjTExzpwaIOq98YXjhQU3q0ZWy+bOM/Uq1siT3xAbWJwtnvwW9bqNkWxO71lRQ3xki9t+FByQjeOHx7Mb/SQgm0QQeppb5U2wZsO/vD/frOSOW5wlgTsfw+1CyQzIBi0EqAf/CM9lCFfiZX5+ZhgezFAG8lDz09OcKsBba2FqvP7p77YTeP3Zv7rYpIlP4YuBgyhKz8FneHp2E3UC5rHPIzKb5Om/GdxDF+VLrCimp+9ptII7mNnPqmXpM1DzoaCQ7f1NgS5Jk3BqF3cOdXlvzlhTErYvWvSQbX/fU697ktLQ1UaTeGC7MI2ic8a90UV69zO5o2kaS1s/hyV8klKnBsjZcl7lEIEy8MaDZ5uMrnK4ZiDpbzkVeqHyeAzcyQ5OjJuxxReQyJgueCwmAGzT6VItkjFKlm9p45m9EDmDPvl3oGSqzo20GcvlxNk06p9m6vpUoFu23TEFrGav7/idGLFv5S0E4658h9kq7mZVS19HCKeEzlEo0CbUrUh3CRvlNFaNwj8/6ooNvzlg+n44lEW8C0VEzajkiOflQOe07KehHdmKsR2mnnLnQaeknxERfaGohkR9pLXswOvfP9Ax9jWqxOO7AA1YLuqZwx0egZBV41Qqzi1fzylP6DA3cYbRcyjqpmLjME30jWXZsrlrAmVF/wBxKlC8AIcLGQAAAABJRU5ErkJggg==;rotation=-145;" parent="YsTPFFB9O-CqiqmN0mU6-1" vertex="1">
          <mxGeometry x="545" y="407" width="70" height="64" as="geometry" />
        </mxCell>
        <mxCell id="pmen31rhCVbTpI0QnTw0-0" value="" style="group" parent="YsTPFFB9O-CqiqmN0mU6-1" vertex="1" connectable="0">
          <mxGeometry x="520" y="352" width="80" height="30" as="geometry" />
        </mxCell>
        <mxCell id="pmen31rhCVbTpI0QnTw0-1" value="" style="shape=parallelogram;perimeter=parallelogramPerimeter;whiteSpace=wrap;html=1;rotation=90;" parent="pmen31rhCVbTpI0QnTw0-0" vertex="1">
          <mxGeometry width="80" height="30" as="geometry" />
        </mxCell>
        <mxCell id="pmen31rhCVbTpI0QnTw0-2" value="&lt;b&gt;&lt;font style=&quot;font-size: 36px&quot;&gt;R&lt;/font&gt;&lt;/b&gt;" style="text;html=1;strokeColor=none;fillColor=none;align=center;verticalAlign=middle;whiteSpace=wrap;rounded=0;" parent="pmen31rhCVbTpI0QnTw0-0" vertex="1">
          <mxGeometry x="20" y="2" width="40" height="20" as="geometry" />
        </mxCell>
        <mxCell id="pmen31rhCVbTpI0QnTw0-3" value="" style="shape=parallelogram;perimeter=parallelogramPerimeter;whiteSpace=wrap;html=1;rotation=90;direction=east;flipV=1;" parent="YsTPFFB9O-CqiqmN0mU6-1" vertex="1">
          <mxGeometry x="551" y="352" width="80" height="30" as="geometry" />
        </mxCell>
        <mxCell id="pmen31rhCVbTpI0QnTw0-4" value="&lt;b&gt;&lt;font style=&quot;font-size: 36px&quot;&gt;R&lt;/font&gt;&lt;/b&gt;" style="text;html=1;strokeColor=none;fillColor=none;align=center;verticalAlign=middle;whiteSpace=wrap;rounded=0;direction=east;rotation=180;" parent="YsTPFFB9O-CqiqmN0mU6-1" vertex="1">
          <mxGeometry x="571" y="359" width="40" height="20" as="geometry" />
        </mxCell>
        <mxCell id="pmen31rhCVbTpI0QnTw0-6" value="" style="shape=image;verticalLabelPosition=bottom;labelBackgroundColor=#ffffff;verticalAlign=top;aspect=fixed;imageAspect=0;image=data:image/png,iVBORw0KGgoAAAANSUhEUgAAAM8AAADzCAMAAAAW57K7AAABR1BMVEX///9BLx+BxWRPlUZSmUlMkkRQlkaCyGV+xGBALR6Ey2dUm0qOcU57w1xaqU1Up0pmrlU+JBuJakRxs15grFFssVlBKR15uGY6HxBztWF6uGdDLCGRdVPy7uqsmII9Ihp/wGI8IRPGuKo2GADn4tuCvXDm8+HL5sCKyW+glpIzEgBxoVORhoFIQie7tLGi04233ahYRT1NTi3Oycd2rVltmlCUzXzw+OxRVzGDdnBnjEnc7tUrAAC6qpdEOCNPOjCt2ZtgfEKhim9qW1R6bWfPxLdabjtKbTcxDgCFZDuyq6fGwL3a19WmkHezoYza0cdFWSxeTERKfTywrI3R6cdYaDnD4reaj4tdg0VIZDFkhEZyj1xWa0BUXTqp1pZum1mLu3nEwqagnIBaTTrOzLR1a1aRinGpsIyEnGje3Mjp59aYpHlql1nuTbwqAAARwklEQVR4nO2d+VviyBaGERUIuHSgrY4do8TQyq4sLriACtqKqO0+7dxrj7Pc6Xtn/v+fb2WtylKhsBPFefI9z8xgAky9Oae+OlVZCIUCBQoUKFCgQIECBQoUKFCgQIECBQoUKFAgsjaWlra3t2/uVlf3Hlc0Pe7trd4t38DtSxsbr91ASi3dLN89rmfD4VhsUlHMLG1jOJzNrqze3WwPL9fS9urKejamIIT7K6YSh7Prj8vDRrWxfQdDosSCgsQKFpOpHm+2X5tC1cb26npYyaAfEoTKrtwtvTbMzXqWLr3omMLZ1ddD2lheCf9wXKyajGVXXyXzth+znsPoSOt3L20QN+s+wSiCibf3knl3RxuaqIMokWIrL0W0nJ3sCxGHiqbTdagCLvh3Kh1W9vZDg0QvkXXb62QaGSQarhfWtvZvN6ulUnOEAbJYllX+gWJGms1SdfP26GGrUE9HFS4y0arvOHsEd5ZDkq4XHiBGk12Qm85Ajcj/4NK2MTLjAlOqVo/W6vVwnMQ0mfXX65YcU01mqa/tV5sMjIEFwE0KGAuapdutQtqZyd8Q3TgEB+ZLau22yiyw1ljQUsGkZNnS5kMdMjmEaMU3nCV7cKLR+la1OVBUCFQwUKXbggPS5KNfPOuW6ETjqYcqw/4wi44EmZq3hbCVaPLGH5wbc3igkd02PYPRmQBb2rIEKZb1hycbM9GsVWX3pVSzSY/ENo/qcf8DtI2FJxpdq7L0NCPMv/8FqN8MiUaO0hhRbN0PnhUUnnh9kx2gfSMj7M/fBkpMBjS3sH406UfpgyXAAzNAbOTmNX9JbQ50AGCMNusG0OSd9zjIDaJrC4OZAAN+Xp8dH9Q5QBUFyAdHeDTSLV4d8FAzP3/65WPiy2CfgkAFAyjmfWUa1nmi9ZHBkm3k708yz2hz0AAdGZ4wuew1zpIRnugDOxBO89snhSdxNWDGMc20ER/Pix7UfeID9WymJONAJRKJzwO6CJZwnncg5NbpQfIGNAufDJ5BgcC+kXAxrx07a6RbYYB0U5PN4IFAg/AwVdSBvC4RUGmwRc/DMN8+mngSXwfLVTSiejwCbSO3pu8+DHj4YOEZyLWxDuR1ybOMijf67sMeffjw8aOZJzGIm7BbaEj1lmcV2QF1a8CmjGPlGS3RewJmCGFvR9QVNJrSehTTLMw68CTG6QMMNv0yOGNqGl2jtQN2a3YWC5DBk7ii74AlZHDeLvQYdh3fp2wNuJ0l8NB7AlYheGvYG0Yax2/pGsM06ykI9NGJZ4y2CzGMMWeY9HTdagmza7q2sD/NpEwBwnjoKznMsD2t4NBcO16lagpTnZlJpUg81MMq69MAhPHQ5Qq7pvLMGiOQiYfWtNk1YwDylAdV13TVKPgyI/PgATLx0HocNqB6WmEbPNEUTTMYsNaHJ0GXtmhK5+0inFHuROs0XRlsvns3oyecMw9dgMBt3Jf43Bk8BZp2sGsYjwZk4UlQ+SSDCgRPC7hVxENRHjAwPAaQA88YFF2AsBmQpwXc6kDlDvsTxjNr4hkzRFVoYwWPpzx7g/AwzXcmHhUIQxmj7kFDwQO+vn+vAuEOl8BQqKsejMfTJbjBeCI6D55wVj+gWkwYBh6m9B7j0QP0ESdRIzXef11yGHjA5/fvTQHCeMZwUcwb/Oo/g/jbwriFR5k0fDSzUFq2Xzx39OMP05x675RwDjz9V7Tx8cdDHKzeKfRbPgBfpqacEs7OQ5FwwKf64Ia+fgOfbTyzJJ6+CYfqN2/rUXy+0KcJbGRKAbIOqQ48Y30dDluw8okn2ifnmWZiCg+Q0YGcePrWPH7Nf+jnp0x1asqecHK+RRx4+g2paH7q23y7z0QMfJ2eckw4J56xqz5u6dcC9hL1cjx7Ne0QoA8fPlh4IrLGxt2jjS/Ie3oVD/36GzvuxDOLeCK4xtxndb6tv6FrXfqtj4KIwmNPOMgTsanPCOTb+ij1+jUzkjB4TA73MTFqx4n0MQT/1q/R+QX3AoGpTlt5tAA58vQxBP/OL6CC1H3BCnyZnnZOOGeecdf4YFcgeHz+Z5lyQRHatXOAYP+xaXQ04l4h+Hd+jnZApeQZ1RRxP7nl13BqMuwjtxQBn6edE07lGcWkgLnyMCMpg8fry3zR9QdrC9Q8uMMlImYSVa4DKm5vXl/Ag11P0T8+TkNqwkJCw1P1y66xFQR3Q3DjcfA3dx7/Tm9TV6QYjyXhHPwtMtqHx8frkbCK1M0QnHlmrDzI31zdMuXP2UZFRuRdKx7Frx0dLmFB0f2a/F1Myc8LSNHF8W4VglIfOCUc7m8mHnJ88MvFvL/N5A5NuV1yROexO0LCAce9PsBOnnpuB6YLFF2mDExpmpBwjjyjrvWbMVnw4/perAO5jUAg4ZhwMwQel/oaOzfnx/XXWAdyG4Hg/HQAnojLhQjsA7IDP+7SQh3Ibc7NXk3bgRx4xhVFyPNTbK7tdXGtCrti2aWEMxkCHqDEuIlE1Sh5/QBzax9GH1lhdEMGOeFshoDxjFs16mLX2NzH+6vJFa3SJByjG4LF4VIJGw3kIduBKd38uQ8VlXBuiwiOHeidHB+7IuTlEHzpwJfbf0LYnCEcJg+ppA7kyEPuPni6+XT/HDZncLkIm2HwhHPnIVcHTBMdOx9uLlGFHC6cJtcphIQbG6j74LWbfzegooRzmTTIS3B0PC7phrmBb+lmOg3kcp4ORJwczoGH7Nb4wptPd2vKQqs8bpZtq7EVoIiDu5HSDTdrjxfizcIcgXxdubyGbXcE+2g6Tpy4Y5e9+ecGsjBHcOlB2qTbnHB2HpfBFIXH2/M+Nq3QWJwRINwRBggPi63r+HLrKRJ2i32cfB+ddRXBkYd4sh476+OnWavCAkQuEhjd4rCEsw0+xLs+8Xm2z+ExBShaYIkdetPmcNS9B78mxPfwmG/jJlvCwpU14aw85OCmUHg8vw3Qrg0s4cgTb6ZpSThr+UacaC88YGaw5zsOPg1yzbgv5gBZeIh3ZJiyzaeJj0XYtCF+RPQ4NeMMngKdVzN4tvmyrGOX6bkb/TxO5/mG05CXdRa2sPD4NY+zCrMEt7KniQfoO9XQw2KFjv9erQu3hPgWca1HMW2N5x3Oc0WyEXwk9bcQNQu7GxUW2sQuxKKTw+/+orBq0xqIX091cRReJaRL5FHos86TukYdiFQYMOzaa2SbrA1sLS6acp97K0D16791HOKSKF6GvmS2yTI9vIa8Ps9ol49NFa6/98MBt9hThF7M23Tt4V1oizis6kDfr//sh1NN4zwv/oRV/GFW8X2iyTHsZwg0/de1mnDEohpaG4bj4xoISbhpwzrBBegrjA/kgQG6IloHdilI+IXqNqvMj+ciuzbMpKmZ6+vrpz8/k2e0uFO/fOdRtYoDpTddgErfZZ5dMg4omB7A9UqPJ17BTS7tcqEs+APiPP1BxsEHHj9OZlMK94SoS4SY32QeYpVjxvHpbA+NTJ7gBjTy6/XTtUjCMSXbCw+kZi1RAoFfn55+5ahw/F1v6ye8TghHw7cE2xb/8/R07sgDRnBn8/NplnSyPFRx3/lRaswfT787xgeUTDiv5NS4lk1A8QfH0of5zZmHNRU5EGcIHiR/ZwKKrjmtdMg89nxjFm7NONkhwLEB1R2KGsjz310rD8PuR4cQxwaU3rR1Iua33208gDENO8ODYwOyu4LMs2jmYc1OEJ4chr6jy/ro2LURYOX536Hk0nWgUQ8RjvzkZTNQypJzTKuRwzYAZstE8/rjjlXbYRNRNPwALCESseBU6xacvdduv01LWUuI6lXCY0oBeLA8Q/lVazaSNlYsnSi97/hQXFtwYrGXn11Tac8M5BgiwFiDE8u+9q+WEHVneR57NLw1YlrfhraWMtMMl09btW3pRDDpjlDSMQulgvWp90PoBLisnUh+wLxm3Qzb3EpbaIa26yDdWX8KJBouwG7EsCP76bh5D8y1oe06SNu232iQn80OaazPuY8NpU3btWH1ObkbpW0/F+H3b194qJs+v9iiBGdviH3NKhgi9x/UeUPBUeX2MzRyz3lDwdFkHVyx4LzYTxV5qo1Hx6SbzL7eAugPatv+K1uT4bdh0gTdmLtRLPaWXM1Ry+i3w2KxxzfZcSxaVrNuMvaiv8Hmp2DWTWbfoEWTtXTzT6IJFChQoED/FAnz5+e7u7vn5+fzUOe7hxm0b3Fe3iXvg1q8EF6vlfQ6nEueJGVNzE0kT+SXB4f6voM5dVdS3TF36PZFwyJBWExOTEwcClAXiwfwdfJAj5GQmYN/wl2ZwzO442T3VVtKrYOJiTk9mS7mZDoj6SBrUv3jUCbNOH186DSP8YSEMxwI8YTO4cu3ESATjxKu5IH2GuPJQM6zF2/bc2ThEeTMulBfYzzCyURy/uUb9wxZeEK7EEgLkIXnuQ4nnHbhv2vFRk79slP4qmd6Ry9XbBS7+FHt5uR/ddrFGv5FXfi2svI2vUv05E1dvGdbeTInsAcJVh5oCHPPYinnOq2dYuj0ckcSORG2rlw55kSOK6P3lC93+FY+L4Gc3uo2OO6EunxeBKKUM6AbUuuSP5b4Tq5bvFRaWGvvgJZ0LIlFRGDlCc0ZCYd4hLnk3LPsrXd5zAGxWMy3G22OB6DX2am0K/BV3ohQY6d1Kgi9BgfyHQWPOwY86MDNly2O5/On6ttqQIJhForws9zxjvLO3DFfhp8sioC7NBBsPPMTemrJY9NiJpO5WJxLzj+3QOhdAl5qyAejLEKMdk2AQQO82NFxJF49UjmOl4ryC6Hb4nlOeWMOfqSt7BV4TtkZ6gBwmcvJrcnlgZqNZY7n9K+z88AOlFw0eE5kyV1q8blAXU5sqK/ggazo23hR/b6yxOkZ1RF5qae/UTvgRZHnlVf3nKQ2viaBS+2F/r0hGDTplI5n9/BwcfdgAm6beKYfdDm9xTUOtNRXAs8fq02/RJnXE3nuXqPQw9fjNMY20FgFAFpKexuipHdCAYu3O4/WfzJKxfM8IMijtjKUAYDXNrZAXjncPZiMxv/9EmjJhXgysAPV1H1afIQWqAjqfyWjD8IkrAgEHrkUsPqBslW3vQFVNnjgoQXaxorGU5N4zvjWhqi1CvEILY2nDbQoZ7R9GfhJgwf2Pa0X2nkOnPw6FJpA4+yzeXgbz6mExSfHaankwFPktG5TllTH60k8ik9ZIvNMOI2natielXBdNx4Ynzx2lLU24zx6YnKAk0cZoXKs+pzMo3sAPCzakbDzXBjdx8yz6DWPgiF7QBfxaBjQ36w8sk1ylWKRF3P6l/FiUf9kWTc9O88ZqgRsPM/Kty6h//S09gJj6ICO1dV4WBtPqNcRQaudMxrUBgYDPBKcznZm5rnAmm3imYd/PMsPTP5m5VGGDj3h4MgraGB4fPSsuq+Yqr4uTDjdsDuiqO87w2dwocyEkW2qcxuzVfj6/Dk4chZpPD2TX/cMRm3sPOXyWupBnrbOo/eS04rUNh1PObQttXk9UbrXNx/gBBcTSfSHYgH6X/NJY1o0mASYF1pDurCzaIM8LGhy2kYJiJcyW611rOclHIhaKu4pHCmL6nADS59Ko5jrlmsaVk2Eb5NhYZGoVwpyfkGg3YyygjB/gpYP4KGDlamythASLg6Sz5v+CG0xz3F5+XDnWsccxx3DFmQu5Vc7Wk6VW/ANl532Tqur0UicKHISJDpt5UVRlJTAwGqNB3A7J+W5jkpUq0hivtJpH/N6ybSoLBhAoJPkHCzVsOWd0PncibIvmVR2HzzLC0ICPKJQRXj8co3i/f19sVELZYr3ykbdqXLtSqvVKWuHXeh0GlCddg/OB9SXytEvVyCZJHEAxlbLUDhDgp9so5nT/AHSmWn5LXRwdqZsnps7ODhf9HsthMJpaq3Gae20fA/zl88bHk/zyaFUbkdn6FWAUVm/WRV3EMKphEbSN6rTYwnN0AUuX3Z571vQvTGJgqrlW2+11+gq5wFi6By/9fDAshrO2LQJXWcn1+fdb0A9XgT5SuO+2N7hT/u/ffiVafBcfmdHqnTfet/RJdSgev3fFyhQoECBAgUKFChQoECBAgUKFChQoECBAv1D9X9ndgioLLxWEgAAAABJRU5ErkJggg==;" parent="YsTPFFB9O-CqiqmN0mU6-1" vertex="1">
          <mxGeometry x="797" y="70" width="97" height="114" as="geometry" />
        </mxCell>
        <mxCell id="pmen31rhCVbTpI0QnTw0-7" value="" style="shape=image;verticalLabelPosition=bottom;labelBackgroundColor=#ffffff;verticalAlign=top;aspect=fixed;imageAspect=0;image=https://pngimg.com/uploads/mysql/mysql_PNG35.png;" parent="YsTPFFB9O-CqiqmN0mU6-1" vertex="1">
          <mxGeometry x="799.5" y="391" width="109" height="75" as="geometry" />
        </mxCell>
        <mxCell id="pmen31rhCVbTpI0QnTw0-8" value="" style="shape=image;verticalLabelPosition=bottom;labelBackgroundColor=#ffffff;verticalAlign=top;aspect=fixed;imageAspect=0;image=data:image/png,iVBORw0KGgoAAAANSUhEUgAAANcAAADqCAMAAAAGRyD0AAAAh1BMVEX///8AAAC9vb2Dg4OOjo4+Pj7Hx8dkZGSRkZHy8vL8/Pzm5ub29vYbGxsQEBD6+vqpqanq6uq2trZ8fHzX19evr6/f39+jo6M0NDRxcXHR0dHGxsYtLS1ZWVmZmZkmJiZQUFBNTU0NDQ1PT09GRkZhYWEZGRk8PDx0dHQrKyszMzNYWFiHh4c3ofqyAAAMA0lEQVR4nO1da2OqPAwe6qYgTpEJG9496nZ2/P+/7/VGkrYp4+Kk+Pb5tgIuD23TJE3D05OFhYWFhYWFhYWFhYWFhYWFhQqvP+q1d2FvFA3rFuWG6He+nRTLdlS3ODeCGzoiPoK6RboFpq+OgnHdQlVHrLI6ol23WFXRY2kdx2LdglXDREPLcRZ1i1YFkZaW47zULVwFrDJ4vXt1S1caLcqjOxlPPmhDXLd4pbEmCtA/t3gLbJo1tcPI7MIFK8HGaY2yVQH2zYi04uBs6iL2LyWwFZq7afOyJrmqAjqmJTTjSKxJrqoA+Yea9n49clWFrl/AaXmrRazK+JFXUotYlaHjBe0N9TA1euOt6XoDrMO10AzG1KAmuaoCfS/qH6OaD2uTrBpwwBGnJMKwQFPtqKctEkvdyBE27bmQm9+adNqdydS/p5xFMXYIDpPWuEMbVI/Zjz/h6iw2mNrW0WMpd9dQjoUsjGX2xjLiZ1fyV7llZuzCzUfZzsNSunPE3mWsT/2lobWT7lto7jM2bNVmxe1Kd43Zu06Y1CJ1DnAhRHl4ZcXjjDUi+x+SpDtF1Cy9+a8OmfMhojsqXVXJCfG4dWfRE3gabZYkm4uQLe4iodF1zy39LjY931XQohicZXzlllqyyqGWINPS2Bl2wpWXy1xC64rqE1z6jNX1J2TwgnjcSmiG0bllnjEGel7+JiUgTj5c0+4kYinoebkgv3hxqGk3Czl4SfFfDwxhkxVHDl4zsd2bpRdMjjNeeTF7Q8BrI7Z7MA6NzYt46a2vIj4fFPMB55fYL6bH8QPB+z+iLcblPXD+v4R2MDmk8WkGlGybE7oCswO0U9MRu8vEfTJdogOxLPpzaN0jXxKPMy9zwNO5y44zv1qKnhCt2aQR1DHJPqpNfB38LL/q+6zlWkup+TN+eUvid75rzYD/7mRh4D5F68w7LrcZl7GY1VsnbPnYhwTWY6sTuaT+EcYpw5ci0u/+6S7UTUPBTBSw04qG/VZvzwm/bz15O5aWeUEbIdD5ihtgLTVcffGHZavk/DLqkl6LIRW/K0Q1JAPkIzXxk0/xgrM10I6noTN5X5KuxJ9U9tacXJkbGV8jcbI/ykUSKJUmUDA+dD9nz7vDxEzfxCcvXs2qcQd41WQfXwXJxuPmPtkUMnZfgQXRhlxwwn3NpG0u0Nbgo9C4DM/vLFk1oNrgE+WxP9/vLFk1oMnLB6HJMnBnyarh+0F54fzh9QLGqJuVJIUrL68XMD5g9u6WDDSVlmxyCZqCX9xlY0HCUJyZR3byjN7cUtBHwVXzULAejU2pYeERn0O1lKZ4cSNFZbwgmrZaUWDqGQ/qJcqWVLDBa2KCStJOF75taKDz9SRlmojEggG91kWHZCoGsLbmxXmPEOIVNLSppAxdVzh3Ll9wdgY6MWKK3mxyUff+WHb2nWvwOlHbHSN39OR9lHXYDnXn97bRVHPFPHXpMeeWS8C8HstKFs2Pv+Ylw+oP+V4QB1nnSlMYaGjxua0pesc7puqWy3673gorgXkjMSMNNNX9XrwRWj9bJ93ut4jalHNLTcCbvG2X4hXMYZfuabZT+2lI1KmBq9iTx+8WfVBtgE4NjQyjC2dmKE5Jg1USYcG6/ysYwTBATQ1ZufGWTKLnhRQA9kFLiB2DWueOshZEEF02vjYvTFQb5A807eYtYQh9HizIvxfbPehHk8/N5shn+xbbMZ/NPCMRkYPXq9iOBqaZe0YX5MkXFdUkxkhMDQqcoOc1hPEmxlAhlLBXnzEHGfnYuMDRAYfdaKIhBcjghXb/low4DHYYXW0q47yDi6v2Z9pjwTO0GTy9gjgN4/yTrY0TaMjg8Ob67pvQcn958yEi4d0jdspy1BeuO5IPYKiW9w6OjFAejbpTiCcYl354AZ0o2CNyCJi76YJVDTLnQF8jruTc+2rW1PUNGJdVeYarEVcJ2gd8bunARF/5KStlVI6fuVyi3txQD0VXJfAEpUqFGr0yVGVoJ9cFSvwsEGMhB0PHoLjeLk7LkDsikUEuxbX1NTs51vvv0Lh0ZQRRGvN0cR2SKA6/4A6DKDBTCabAqCjNMkRipk6fn4DDkM4UDFusapKrKsDOE/1FdEtqkqsqQH5xDW7GedAM6PrllefbGOh4wV6JyfGzDOh47R+lv0T5MVe7ofNLow+bsJ+QCVy/qGXhwTA071BNPmCy64qElDDY0VR7g9iHq3QqeSSGY2hA5mdQv+Niz8faVLYmIXAESKlRDdXyJ2TFz5pa1fGMtZbWu9k+1g9wNzpeJu+t5kBfk9VmYHJQMQRcqG3WYJ0BUA+6KvH5ZiISM266jR+DgGAE+19xY60MDfzoJWqoY2JhYWFhYWFhYWFhYfEY8FzXrSsw4PevuHHUL2iFu+fl4JrCm/6T+7nUsDVy07PSGPg484LCtvcriP0rvEiU+9Jf6V+fN/wn2fgNXjQ/VuR1v1ojv8BL+PjB4/Dylo/Ji3bXdn752UfghZvquM38CLwgq418Y/UReEF3MW2PwGvOtD0Crw7TZiyvl1G7u961Rxl3pz+4YNry8Yomva8/f74W4wq7GSyvSScFFc5r0eND4XlnMjlc7juct76mx78gs37Vg3aWV/+Q/pMD3ZKODmTnen1Z/trXG+nXnkvw4r+0M5bqETuhS1K9ztnjzGkB7bpMiheRlyedvDpalAl5vECNZoYXWVhxAzJg6kEvo/K8hlhwsIfScGkhC3y8QCKPyotUecG0T76okBNA1xblhQVVSNkUvpb24Sa8SIpQot4lYQAvuCAv3JjGcp6+rqQH/PcKvEi+CR640BfqEb9AlJsX5o3hlPHW2v9SnZeP5+uwtoQ+twZx5sVU+J5wvHAaEU3Afd7jZrxw2JPcSEFHLcNFHHeUM11nXu4phJG2tIPjX5HP8MJ82e1QFeTCtxPHi1AemKV5IQOie2nFrlVyTRD1pVpLOGjTFqLmRF74e58kWPRNfmx0bfcSUZOU5YWFdmiuHckXogfEPSEpJT8vVK1LYk+Q19Slx7WFbizJC4c9pUVUvJTuT1eb3LywzuBfGnXDRV86rU11Vjle+MqEUsrYicqJNNJjeXn1Yc7saYoYSq/YFORzEmV4JVP+cSwCwhSOLsprS+rFCplvqElVWxfDW2V44dqzFkK/OG6YYC12cU5eWOJRzBH75p66Ao9RlOEFkGKyoJS5Yk/4hbJ8vBDSVIV2Lp4PK1sVXt/SL0M/ssUyYPIV5CVNVRgUbKUsmGFVeMkeI+gGNm8XvrFZjJcsIEjOFt32dI8V4TWQin3AUs0+DsqmWn+BFLzneAte8sPZvOBFF51fohKC18N/gqQKLzTaxFMz2bzgxG8+Xiv4NfFrAiAFX2GvCq8EDyULKhjmF7snB1olp573wDUQzIoX7iEAmNLl7A38TCFViWAssfoQ7NK89gau/nSKZetDeOPlePlwLo1aFpOsH8UDU7ntQ7AeNgFzA3uCERbzknYvWrhkmGPpBmYgopGSm5cHdUbW5AYwr5gjcShBWT8FrTQ03nA7S7UPyfm2/H4KikmmGLoGqsGBTmFpvxJcrRnaiBiLUGYYKehdwK9EzYtaHe15ZYaR0rOleeG7xM7R+190H7kAL1IRHWcTusuS/0UjfOXjG2igY+cQf5kuL35Jf/k4fEFB4acUqL9Mh6IQbqgQZ0NhI+WWI7Zpl3kjMUhVhBdR9mAPejRKHqe2XLIW/kkFXkMIm+PHdsXg08cijnvKGalCvIiCAjNbNOi2p3iUUke3SrwXxzNMMX2tqLK8PHgvWF9Q/8XZm/AiKhemmK42/lGscryIgoKz6UN9ybOb8CJ6AlwuXWH2DQyogrzIL0KkUhtWrmhHpcB3+ewpt4mIxP2UArzIpIXVQ/M53fA2+0R0JcRvuEbMZymOhr+4/1WEFxaZ3uMqxsXoD9X8FOrR4RQmC1Y8kP7hRyDvVwociEsPjjz1ulBBERMjkbfAvqfkJwvsV76F7TNCGs7z2wDaOqEfQrl8tiZJH0ef7evaQv2Q9NeEbzGN0lbhCzhJSN7fajwkP9kusL9cDH4S98Jd2IvffjG/ddgf9TrdbmfRsqcbLSwsLCwsLCwsLCwsLCws/hf4D66yjEC/qfA0AAAAAElFTkSuQmCC;" parent="YsTPFFB9O-CqiqmN0mU6-1" vertex="1">
          <mxGeometry x="806.5" y="500" width="95" height="103" as="geometry" />
        </mxCell>
        <mxCell id="pmen31rhCVbTpI0QnTw0-9" value="" style="shape=image;verticalLabelPosition=bottom;labelBackgroundColor=#ffffff;verticalAlign=top;aspect=fixed;imageAspect=0;image=data:image/png,iVBORw0KGgoAAAANSUhEUgAAAYAAAACDCAMAAACz+jyXAAABPlBMVEX///8AAAAku7H+0QoHeaEXqODvUJiTyD7+zwD8/Py0tLRVVVVvb29ZWVmgoKBnZ2dfX18ApN/T09N1dXXCwsKmpqb29vYAt6zLy8sAcZzd3d3o6OiOjo6CgoLX19eZmZk/Pz/t9fi7u7smJiYdHR3u7u6RkZEtLS3uQ5J7e3tFRUUWFhaGhoZDQ0Oc1fBNTU3i8M6NxS7+43zO6vfX8vD++eRmwOjc6e+N19J7yOszsONQxr3//vUEfqXD6uf/77l10Mn96/P+88j+2UX+3mal0GPM5Kj1ncL+55G12ILZ67/x+Omt3fKezlLC35l70sx8r8atzdthobzn89mn4NyPvM86i63G6ui83I1tqMG81uFMl7X4u9Xxbaf6zeD1nsPzg7P73+rxZaP3s9D+6Z7+323+77v+21D/9dj+1jPwVlNaAAAPEUlEQVR4nO2deV8TORjHWwpCx9KW3vdJgUIVRRQFVsD7wHNRV10U1wN8/29gZzJJmsk1yQy1gvn94Uc7k2nm+U7yHMnUSMTIyMjIyMjoTOv6yc6jte/37n3/vvbt5Pq4e/OHafvk0XFshlDs7tqOgfCrdLL207G5R84H935sj7trf4LuHDPWxxB+7oy7d+deJ8cC6yMEP8bdw/OtNZn5XQTHxheMTNdjPuZ3EZh5aETa8Xv8EYK1cff0fOqRmvkdAvfG3dfzKHX7OwRMQBpScfoDHfvbBI4NgaAqfPl6dHR4ePT50x7x6Tct+9sEvo/tBs629h7+t7S0dMGW/efRJ/TxHU372wQejfM2zqoKny8A4yMtHX4BnyvFnzQBk5Jpa+/QY36AADiDe/r2t2UyMk19oa3vCBwJYn4TjOpqj3n8bR05R7YDDQAzCWmK9/wvfXaO/AgGIBYb9y2dKT3kDYAlEAfpxqB4CJiqkLq4E9CFJZALfA8KwAwBdR1xAVwAQVCAIBQSuDPu2zoz2uOaP5QPjplASEOf+DMQ8MH6afCQgCkJKYrrgkP64JiJRNV1yJ2BXB+8FgKAWZtR1H98H1Bwjv0MDsCkAqriAzgEx8LYf8YUhNTEBbD00DkUwgebQFRZfAD/OodC+GCTDCvriAsArAaE8MFmXUZZX7lhKAiCQvlgszSpqC9wIfKUfbDJhZX15d+Hhxe8EFwffBIOwPG4b+wsae/TZxKC64N3fk8AFQuoMqLLE7Jqjgaiww2g0+vH3pevRxDCKfjg0U1BVhTIGtHlCaXcbxIcjbtHl0/1K52tQf/ZEML74NE54V8HIKEC4GLIL2mzF9779ytYDAhl/9jMt5A9E+k8AWhf3pzavLV/jXswnA8eXTn0HAG4PDc3NTU1Z+vGZRZCOB88ulLEuQFwbdMxP5QNYfPyvmc+ClWIsF3AqFZkzguAy4T5hxBu7W+gE4KvR8ZGWoj4zQCsBrz4Lcb+CMIUmo/CLMeMygNHfh8AkQTQQrBrC+yPKAAC1wNviYiNshT92wAII3b+8eoGOCvgrqCZ2In7LR/ebEj6EFTnAcC+j/2n3CEQLBCduQvXwl5NlidfsnlGWJ0DAG0f8+MhEGRzOn5L7E15cnKy/Ner0+79OQBww28AhBgCeDfEe8f+DoL3ep3rlax+NltfyOcyBe4JLIB6llE/mcswb7t5VC3l8s1mM5nLlTKVSpX3XdkwAAqZXH6hnq0387lG1duVa/72n5q7BU491iWAw8+P0P42gbdyS5CqJFsrUayV5TzHLiwAogmplXRG+D3NRfrkbnfxYqpedQ+ngOA5KVLpDr5IGnzALZZmmsueTs0vpmsdXDe94W9/mwCYvHWX5dFCcPsttr8zDSk6gmqKtWKfQcAC6PIB2Fqtcs3TEjZwkWWEx6PRJrqKOA/o8Ds0Cw9vqNgfDYG7OgRmUPlhY9Kj8lsl+1v8O6Ynex0APFdR4GCmADQkZyQpAEwmHL8oaJmFJ0hTAHoI6BSEZtC7YR/KkxSBlwr2r4tuuR4GAEOgIjv5FACIr48mq00l+0/NXQZnrynvUJ/5CcOfV7T9bQIffO0veS6znhNZAFKTRr2zkNz+ClOQDwDJ9eHkpRCDQrnnX38UU/qpDm/4ScvXDdRwPy8mS41Ko5RbWKW7LgKQY9RJprETTHm+5xK+6EorVV+w46CFfmJ2tdVanFcDQPsAL4AC4dxXWrMD+/rNenoVXD3vnqISAwHhAvX2t5/+CFD4GX/Ps/9k+Y3c/njQ94k11sYs+pRceFXMA3p9SeNoNJ2j/HO8V2lkSq7LL2QcNdLuqRmPcDMuAOI5sqqeq1dRS78qBNSmZ4Hgh/TnsmLD6lv7I9f+vkMAPjjzVOCYh3eTYG3on4ghY9eIz5bhZznf1pEg5egqMn9LGAGr+eC5TbqKc+eeBAH+qaaNtwL7+wwBaKsVZotBEt5QlTlXIROGY2B1mIegGVrJ/gEANNHjL0l9VLKAuRvweT14N2x4XeiPcfVz4y+B+W1J07FFoV1gTEd4AXUA6Hns0W1nJY0IaQOIowSDn8O7UgCA7f+iWNy6PWwq8Me4+skJf4ghIKmMZtiJBgk+s8tDfBq1IMh1OK5gqNuRtCGkDQANsKSgCZA/AJiDRSJbxYmJieLEwfDmef545q4s/FGagwZuv7nzZlfwFKsAqNMDKyH5IlbaANCEKa29+PoAZP84sD9AcJPwoD/uehHgHXAvpfafnJQU5dwntcU91qQfWg0AsG0ef5Cih4RU2gAS4pE8lF8UBBOwSHtiqGJxd314hRPSH+Pqpyj8wfoo7BIcuTXuwRx9UANAkgYALVRSaBvRB4BcgLxrPnnA3L572vqEV8Utjz9GCFD1sy0Mf7DeCgPRnMwsBfqp0gCQp6dkGBc1JW0I6QLoRVUGmDwTnoPh/7sJRrY/JpyB649x+CkJf5DEmcBA2m/3YAt/dxgAKEzsSRoNpQsARV0+l5XWgqD9bxdZAMAfD43o+GMUfn7wN78tIQA34Z0XuC7XQaycCgBUY1hU8gK6AEruJys+lxU7gblNFP5z7c/44x2V8FNhBLhT56LgKCwJ4dBaGUCh0KQB9HCFqF/yHwW6AGDP/HYKCdcDcPh/U2R/gID0x0Dy8NMfQFwWBEUiaS0A8V61Usnla/3EbGs+SgNANgVKNzPc9Rr6ZFG3GQCQd1bQAEuwJDx3A47yFxL7Awa778jL+YWfSMJUuDcvfXASigAKlU7NtjpncYAAQFeLVxPJTEXUMV0AsBLHj+YIXePbH4X/uz72B/4YJ2fC6hsjYR4Afdd8Ks1VVwlApk+v8nIBcJfdWmn++za6AAbs1/HFy8Vw+L/lb/8Jwh9vqNpfnAn7rJFEFQCULsmaeizS4Z9zKc/6BF0AdVUAbTYQ4qVffghughavVQEIa0HhAQzkTb0WGS4UUKrRU5EugL4qADYZE6VfcgTAG6sOAXE1VAlAVxKGJuiTV5YTC3mrVE3yLVLIL9MtXDXCAVAeAUwoitMvpekHaxc04i+Bqc9AagAkiVgen9Qd5DslIrJh8gCsQqe5yvkWL4GR+YAI7Qbg7CAM/6VDoK02BMQrYhDAfHpWrIvD/U80AFQAiKYZTyoGAFTNWTXvFqEVzzANCECt0DEk4J9+CbUF2qnEobKNKdUV+k6kogEsQOPl2VN9AADFM1ZquIvNc6ouANgT4YvFXu3T9pelX6IhABKCtsLzL1sShnmA6gu3NACYbtU5p6oAcFSwUAzbIj/WBQBdTkrQgNYGSMhQ+hX3S79CDYGybI80zIRFpQhaFADkQXhJrSoAGwFyy+Q0FrAU0VK5C6D9zTmd9Is3BMCCpe8QKL+W9sMN4ruKvaYAwFo2N49WB4ArmWRNXBcAKvWp3IWr9r5e+sURaO5XDfLZH50WP8McUQCgkfu8UzUAIGuTngRuTxessAcuR3OkFf5zh0BZhkC8FOMK1lAUV2opALLQQwcAzJDJQg4EICibchZkoDNv8BuIFdz+aAhsvHr5tiyA4L87Pcc+fBJRAPqSxjoAYCdIXw4BCNYOOGvCq96uqUoz/aKGwAG6TPvDGx6E8kff9zMakmmcFR9A6BFQYgHASwtWkDkAIDHFbUdI+uG/V57n+9qbj97pyG9TKFBX+qhRogDUWMNhBRgB5BRUkz7QHACo1Crbl8UqnPnhHERq49X7v9yhUC6/Vno5BjpA35UM8i4t7z+5T50OgAFrbWZThUccAMgLK30hUigHMIEKQrSc+Why8r3ie8Jw+KttF+GHoV3eU6cBIA7zOTISgJcWbPPh7Q1F9SW1RX9X6+FmINcHXHnwN/vbHG31l/Ng+MBuzuWIAoCeOt52w7zUgh4NOBzlYSUPAKoLyjbn0grlglEc+s/Vq1fvP78S+AdScEFTIYCgSxFoZzudRhRKfVTjSXV6Pem8HEcrCh5Wva6sUzwAeNF/UTGmjoh2oKgDABXR+9O2HAj/PHkaiAJaP4+udqhXduOFQq9akWxPRxsyW8TwifdyfXxJ+Gw700KvP0hajWqvUCAe0Xi1iReSvXZDr03lh2cXcO+4L2gMl4ZmreHbwXH7FqoNQaIZEgDwwdvPpqFsCM8e8+YjH+UIU7VS2T5UIjW73FrseqZxGkABN0zkKrYa1kKWV+t3zIEKR93WajqVrS80a/VsilidoSYrvIDcyi5Yzk6L1MUWLrX5vqIUXU7YXzHIptLLi87IEPyuSkgAoBz39Oo0oUAQalGpJADwEJALbJfyWftpUVN3b55zjhSA7PUyQZk6HIAiWBh+4gEAKTzXAuBDQPqChujFXI/mnTNl75/atmX8RJM9aV4OAEd0rARRdjgn7Prg5yyA6elnegBE72m7qjHnkZ5R9IrrIDOci0C1W/b6Y7TPCV2Y5ebhxkPRi9pV0fOQHgkA4IMfc+w/Pf1Uk0BPsrmBKHbytqXkOU0SHcegnRScRrpEW655+CEwOzDRMBH/Zpzgpwou8W87XCJWdC4x9MGeSehvTQDOylSa7Xaimc+Rm9e4G7MKXkOtNgV73Ss5KzlIM78VcSkprIVXst5Tl1GSJfvl3FKd/gGRVi0vSjNDAeD4YAzgiuiepKqWrLwty+qUMhVe8N4rATHJZi+XBw07GaU8tJrpWG6DnF/617CaTkiWtHINskNuP4S150rJsvLNutMheW1oK8wAEPng4AD+PL0IAwAUIrg+2ABQVZg4VOaDp/V9wJ+pdhgAzgX4Pnh62vxnhooK4QQkPnj6/rjv68woxJIY8MFX+C7gybjv68woHhiA64Mf8EeAmYGUFTgOgj6YB0C3FPRHK7AbLoIEle+Dx31TZ0q7AQEAH7zNHQAmCdBR0CHwwmnM88FmAtJUsEBI6ION/bUVKBdwXw9gCxFXH4z7ds6eghSliy/ctg+eeVck75saRAAFqAhtoSL9to3gKoBg/3nfJGDBpP+GErHrcPvvB4/v23r8RHcZzAhLlwD9mx1GYaVHwNj/9KVDwNh/FFJNB4pbp/9/8xg5Wp9QQeCuBBuNRP6vqxbN9DNSrcvfWC1OHPhfwyiUbosReH+0z2hUerfL8wXFia0DY/5fpPbt3a1iEVNw/rp1YOb+X6r4+u2bu7tbjnZvHqybZ9/IyMjIyMjorOp/eMXaAvCuqpIAAAAASUVORK5CYII=;" parent="YsTPFFB9O-CqiqmN0mU6-1" vertex="1">
          <mxGeometry x="783.5" y="220" width="124" height="42" as="geometry" />
        </mxCell>
        <mxCell id="pmen31rhCVbTpI0QnTw0-10" value="" style="shape=image;verticalLabelPosition=bottom;labelBackgroundColor=#ffffff;verticalAlign=top;aspect=fixed;imageAspect=0;image=data:image/png,iVBORw0KGgoAAAANSUhEUgAAAM8AAADzCAMAAAAW57K7AAABR1BMVEX///9BLx+BxWRPlUZSmUlMkkRQlkaCyGV+xGBALR6Ey2dUm0qOcU57w1xaqU1Up0pmrlU+JBuJakRxs15grFFssVlBKR15uGY6HxBztWF6uGdDLCGRdVPy7uqsmII9Ihp/wGI8IRPGuKo2GADn4tuCvXDm8+HL5sCKyW+glpIzEgBxoVORhoFIQie7tLGi04233ahYRT1NTi3Oycd2rVltmlCUzXzw+OxRVzGDdnBnjEnc7tUrAAC6qpdEOCNPOjCt2ZtgfEKhim9qW1R6bWfPxLdabjtKbTcxDgCFZDuyq6fGwL3a19WmkHezoYza0cdFWSxeTERKfTywrI3R6cdYaDnD4reaj4tdg0VIZDFkhEZyj1xWa0BUXTqp1pZum1mLu3nEwqagnIBaTTrOzLR1a1aRinGpsIyEnGje3Mjp59aYpHlql1nuTbwqAAARwklEQVR4nO2d+VviyBaGERUIuHSgrY4do8TQyq4sLriACtqKqO0+7dxrj7Pc6Xtn/v+fb2WtylKhsBPFefI9z8xgAky9Oae+OlVZCIUCBQoUKFCgQIECBQoUKFCgQIECBQoUKFAgsjaWlra3t2/uVlf3Hlc0Pe7trd4t38DtSxsbr91ASi3dLN89rmfD4VhsUlHMLG1jOJzNrqze3WwPL9fS9urKejamIIT7K6YSh7Prj8vDRrWxfQdDosSCgsQKFpOpHm+2X5tC1cb26npYyaAfEoTKrtwtvTbMzXqWLr3omMLZ1ddD2lheCf9wXKyajGVXXyXzth+znsPoSOt3L20QN+s+wSiCibf3knl3RxuaqIMokWIrL0W0nJ3sCxGHiqbTdagCLvh3Kh1W9vZDg0QvkXXb62QaGSQarhfWtvZvN6ulUnOEAbJYllX+gWJGms1SdfP26GGrUE9HFS4y0arvOHsEd5ZDkq4XHiBGk12Qm85Ajcj/4NK2MTLjAlOqVo/W6vVwnMQ0mfXX65YcU01mqa/tV5sMjIEFwE0KGAuapdutQtqZyd8Q3TgEB+ZLau22yiyw1ljQUsGkZNnS5kMdMjmEaMU3nCV7cKLR+la1OVBUCFQwUKXbggPS5KNfPOuW6ETjqYcqw/4wi44EmZq3hbCVaPLGH5wbc3igkd02PYPRmQBb2rIEKZb1hycbM9GsVWX3pVSzSY/ENo/qcf8DtI2FJxpdq7L0NCPMv/8FqN8MiUaO0hhRbN0PnhUUnnh9kx2gfSMj7M/fBkpMBjS3sH406UfpgyXAAzNAbOTmNX9JbQ50AGCMNusG0OSd9zjIDaJrC4OZAAN+Xp8dH9Q5QBUFyAdHeDTSLV4d8FAzP3/65WPiy2CfgkAFAyjmfWUa1nmi9ZHBkm3k708yz2hz0AAdGZ4wuew1zpIRnugDOxBO89snhSdxNWDGMc20ER/Pix7UfeID9WymJONAJRKJzwO6CJZwnncg5NbpQfIGNAufDJ5BgcC+kXAxrx07a6RbYYB0U5PN4IFAg/AwVdSBvC4RUGmwRc/DMN8+mngSXwfLVTSiejwCbSO3pu8+DHj4YOEZyLWxDuR1ybOMijf67sMeffjw8aOZJzGIm7BbaEj1lmcV2QF1a8CmjGPlGS3RewJmCGFvR9QVNJrSehTTLMw68CTG6QMMNv0yOGNqGl2jtQN2a3YWC5DBk7ii74AlZHDeLvQYdh3fp2wNuJ0l8NB7AlYheGvYG0Yax2/pGsM06ykI9NGJZ4y2CzGMMWeY9HTdagmza7q2sD/NpEwBwnjoKznMsD2t4NBcO16lagpTnZlJpUg81MMq69MAhPHQ5Qq7pvLMGiOQiYfWtNk1YwDylAdV13TVKPgyI/PgATLx0HocNqB6WmEbPNEUTTMYsNaHJ0GXtmhK5+0inFHuROs0XRlsvns3oyecMw9dgMBt3Jf43Bk8BZp2sGsYjwZk4UlQ+SSDCgRPC7hVxENRHjAwPAaQA88YFF2AsBmQpwXc6kDlDvsTxjNr4hkzRFVoYwWPpzx7g/AwzXcmHhUIQxmj7kFDwQO+vn+vAuEOl8BQqKsejMfTJbjBeCI6D55wVj+gWkwYBh6m9B7j0QP0ESdRIzXef11yGHjA5/fvTQHCeMZwUcwb/Oo/g/jbwriFR5k0fDSzUFq2Xzx39OMP05x675RwDjz9V7Tx8cdDHKzeKfRbPgBfpqacEs7OQ5FwwKf64Ia+fgOfbTyzJJ6+CYfqN2/rUXy+0KcJbGRKAbIOqQ48Y30dDluw8okn2ifnmWZiCg+Q0YGcePrWPH7Nf+jnp0x1asqecHK+RRx4+g2paH7q23y7z0QMfJ2eckw4J56xqz5u6dcC9hL1cjx7Ne0QoA8fPlh4IrLGxt2jjS/Ie3oVD/36GzvuxDOLeCK4xtxndb6tv6FrXfqtj4KIwmNPOMgTsanPCOTb+ij1+jUzkjB4TA73MTFqx4n0MQT/1q/R+QX3AoGpTlt5tAA58vQxBP/OL6CC1H3BCnyZnnZOOGeecdf4YFcgeHz+Z5lyQRHatXOAYP+xaXQ04l4h+Hd+jnZApeQZ1RRxP7nl13BqMuwjtxQBn6edE07lGcWkgLnyMCMpg8fry3zR9QdrC9Q8uMMlImYSVa4DKm5vXl/Ag11P0T8+TkNqwkJCw1P1y66xFQR3Q3DjcfA3dx7/Tm9TV6QYjyXhHPwtMtqHx8frkbCK1M0QnHlmrDzI31zdMuXP2UZFRuRdKx7Frx0dLmFB0f2a/F1Myc8LSNHF8W4VglIfOCUc7m8mHnJ88MvFvL/N5A5NuV1yROexO0LCAce9PsBOnnpuB6YLFF2mDExpmpBwjjyjrvWbMVnw4/perAO5jUAg4ZhwMwQel/oaOzfnx/XXWAdyG4Hg/HQAnojLhQjsA7IDP+7SQh3Ibc7NXk3bgRx4xhVFyPNTbK7tdXGtCrti2aWEMxkCHqDEuIlE1Sh5/QBzax9GH1lhdEMGOeFshoDxjFs16mLX2NzH+6vJFa3SJByjG4LF4VIJGw3kIduBKd38uQ8VlXBuiwiOHeidHB+7IuTlEHzpwJfbf0LYnCEcJg+ppA7kyEPuPni6+XT/HDZncLkIm2HwhHPnIVcHTBMdOx9uLlGFHC6cJtcphIQbG6j74LWbfzegooRzmTTIS3B0PC7phrmBb+lmOg3kcp4ORJwczoGH7Nb4wptPd2vKQqs8bpZtq7EVoIiDu5HSDTdrjxfizcIcgXxdubyGbXcE+2g6Tpy4Y5e9+ecGsjBHcOlB2qTbnHB2HpfBFIXH2/M+Nq3QWJwRINwRBggPi63r+HLrKRJ2i32cfB+ddRXBkYd4sh476+OnWavCAkQuEhjd4rCEsw0+xLs+8Xm2z+ExBShaYIkdetPmcNS9B78mxPfwmG/jJlvCwpU14aw85OCmUHg8vw3Qrg0s4cgTb6ZpSThr+UacaC88YGaw5zsOPg1yzbgv5gBZeIh3ZJiyzaeJj0XYtCF+RPQ4NeMMngKdVzN4tvmyrGOX6bkb/TxO5/mG05CXdRa2sPD4NY+zCrMEt7KniQfoO9XQw2KFjv9erQu3hPgWca1HMW2N5x3Oc0WyEXwk9bcQNQu7GxUW2sQuxKKTw+/+orBq0xqIX091cRReJaRL5FHos86TukYdiFQYMOzaa2SbrA1sLS6acp97K0D16791HOKSKF6GvmS2yTI9vIa8Ps9ol49NFa6/98MBt9hThF7M23Tt4V1oizis6kDfr//sh1NN4zwv/oRV/GFW8X2iyTHsZwg0/de1mnDEohpaG4bj4xoISbhpwzrBBegrjA/kgQG6IloHdilI+IXqNqvMj+ciuzbMpKmZ6+vrpz8/k2e0uFO/fOdRtYoDpTddgErfZZ5dMg4omB7A9UqPJ17BTS7tcqEs+APiPP1BxsEHHj9OZlMK94SoS4SY32QeYpVjxvHpbA+NTJ7gBjTy6/XTtUjCMSXbCw+kZi1RAoFfn55+5ahw/F1v6ye8TghHw7cE2xb/8/R07sgDRnBn8/NplnSyPFRx3/lRaswfT787xgeUTDiv5NS4lk1A8QfH0of5zZmHNRU5EGcIHiR/ZwKKrjmtdMg89nxjFm7NONkhwLEB1R2KGsjz310rD8PuR4cQxwaU3rR1Iua33208gDENO8ODYwOyu4LMs2jmYc1OEJ4chr6jy/ro2LURYOX536Hk0nWgUQ8RjvzkZTNQypJzTKuRwzYAZstE8/rjjlXbYRNRNPwALCESseBU6xacvdduv01LWUuI6lXCY0oBeLA8Q/lVazaSNlYsnSi97/hQXFtwYrGXn11Tac8M5BgiwFiDE8u+9q+WEHVneR57NLw1YlrfhraWMtMMl09btW3pRDDpjlDSMQulgvWp90PoBLisnUh+wLxm3Qzb3EpbaIa26yDdWX8KJBouwG7EsCP76bh5D8y1oe06SNu232iQn80OaazPuY8NpU3btWH1ObkbpW0/F+H3b194qJs+v9iiBGdviH3NKhgi9x/UeUPBUeX2MzRyz3lDwdFkHVyx4LzYTxV5qo1Hx6SbzL7eAugPatv+K1uT4bdh0gTdmLtRLPaWXM1Ry+i3w2KxxzfZcSxaVrNuMvaiv8Hmp2DWTWbfoEWTtXTzT6IJFChQoED/FAnz5+e7u7vn5+fzUOe7hxm0b3Fe3iXvg1q8EF6vlfQ6nEueJGVNzE0kT+SXB4f6voM5dVdS3TF36PZFwyJBWExOTEwcClAXiwfwdfJAj5GQmYN/wl2ZwzO442T3VVtKrYOJiTk9mS7mZDoj6SBrUv3jUCbNOH186DSP8YSEMxwI8YTO4cu3ESATjxKu5IH2GuPJQM6zF2/bc2ThEeTMulBfYzzCyURy/uUb9wxZeEK7EEgLkIXnuQ4nnHbhv2vFRk79slP4qmd6Ry9XbBS7+FHt5uR/ddrFGv5FXfi2svI2vUv05E1dvGdbeTInsAcJVh5oCHPPYinnOq2dYuj0ckcSORG2rlw55kSOK6P3lC93+FY+L4Gc3uo2OO6EunxeBKKUM6AbUuuSP5b4Tq5bvFRaWGvvgJZ0LIlFRGDlCc0ZCYd4hLnk3LPsrXd5zAGxWMy3G22OB6DX2am0K/BV3ohQY6d1Kgi9BgfyHQWPOwY86MDNly2O5/On6ttqQIJhForws9zxjvLO3DFfhp8sioC7NBBsPPMTemrJY9NiJpO5WJxLzj+3QOhdAl5qyAejLEKMdk2AQQO82NFxJF49UjmOl4ryC6Hb4nlOeWMOfqSt7BV4TtkZ6gBwmcvJrcnlgZqNZY7n9K+z88AOlFw0eE5kyV1q8blAXU5sqK/ggazo23hR/b6yxOkZ1RF5qae/UTvgRZHnlVf3nKQ2viaBS+2F/r0hGDTplI5n9/BwcfdgAm6beKYfdDm9xTUOtNRXAs8fq02/RJnXE3nuXqPQw9fjNMY20FgFAFpKexuipHdCAYu3O4/WfzJKxfM8IMijtjKUAYDXNrZAXjncPZiMxv/9EmjJhXgysAPV1H1afIQWqAjqfyWjD8IkrAgEHrkUsPqBslW3vQFVNnjgoQXaxorGU5N4zvjWhqi1CvEILY2nDbQoZ7R9GfhJgwf2Pa0X2nkOnPw6FJpA4+yzeXgbz6mExSfHaankwFPktG5TllTH60k8ik9ZIvNMOI2natielXBdNx4Ynzx2lLU24zx6YnKAk0cZoXKs+pzMo3sAPCzakbDzXBjdx8yz6DWPgiF7QBfxaBjQ36w8sk1ylWKRF3P6l/FiUf9kWTc9O88ZqgRsPM/Kty6h//S09gJj6ICO1dV4WBtPqNcRQaudMxrUBgYDPBKcznZm5rnAmm3imYd/PMsPTP5m5VGGDj3h4MgraGB4fPSsuq+Yqr4uTDjdsDuiqO87w2dwocyEkW2qcxuzVfj6/Dk4chZpPD2TX/cMRm3sPOXyWupBnrbOo/eS04rUNh1PObQttXk9UbrXNx/gBBcTSfSHYgH6X/NJY1o0mASYF1pDurCzaIM8LGhy2kYJiJcyW611rOclHIhaKu4pHCmL6nADS59Ko5jrlmsaVk2Eb5NhYZGoVwpyfkGg3YyygjB/gpYP4KGDlamythASLg6Sz5v+CG0xz3F5+XDnWsccxx3DFmQu5Vc7Wk6VW/ANl532Tqur0UicKHISJDpt5UVRlJTAwGqNB3A7J+W5jkpUq0hivtJpH/N6ybSoLBhAoJPkHCzVsOWd0PncibIvmVR2HzzLC0ICPKJQRXj8co3i/f19sVELZYr3ykbdqXLtSqvVKWuHXeh0GlCddg/OB9SXytEvVyCZJHEAxlbLUDhDgp9so5nT/AHSmWn5LXRwdqZsnps7ODhf9HsthMJpaq3Gae20fA/zl88bHk/zyaFUbkdn6FWAUVm/WRV3EMKphEbSN6rTYwnN0AUuX3Z571vQvTGJgqrlW2+11+gq5wFi6By/9fDAshrO2LQJXWcn1+fdb0A9XgT5SuO+2N7hT/u/ffiVafBcfmdHqnTfet/RJdSgev3fFyhQoECBAgUKFChQoECBAgUKFChQoECBAv1D9X9ndgioLLxWEgAAAABJRU5ErkJggg==;" parent="YsTPFFB9O-CqiqmN0mU6-1" vertex="1">
          <mxGeometry x="246" y="165" width="97" height="114" as="geometry" />
        </mxCell>
        <mxCell id="pmen31rhCVbTpI0QnTw0-11" value="" style="shape=image;verticalLabelPosition=bottom;labelBackgroundColor=#ffffff;verticalAlign=top;aspect=fixed;imageAspect=0;image=https://pngimg.com/uploads/mysql/mysql_PNG35.png;" parent="YsTPFFB9O-CqiqmN0mU6-1" vertex="1">
          <mxGeometry x="234" y="50" width="109" height="75" as="geometry" />
        </mxCell>
        <mxCell id="pmen31rhCVbTpI0QnTw0-12" value="" style="shape=image;verticalLabelPosition=bottom;labelBackgroundColor=#ffffff;verticalAlign=top;aspect=fixed;imageAspect=0;image=data:image/png,iVBORw0KGgoAAAANSUhEUgAAANcAAADqCAMAAAAGRyD0AAAAh1BMVEX///8AAAC9vb2Dg4OOjo4+Pj7Hx8dkZGSRkZHy8vL8/Pzm5ub29vYbGxsQEBD6+vqpqanq6uq2trZ8fHzX19evr6/f39+jo6M0NDRxcXHR0dHGxsYtLS1ZWVmZmZkmJiZQUFBNTU0NDQ1PT09GRkZhYWEZGRk8PDx0dHQrKyszMzNYWFiHh4c3ofqyAAAMA0lEQVR4nO1da2OqPAwe6qYgTpEJG9496nZ2/P+/7/VGkrYp4+Kk+Pb5tgIuD23TJE3D05OFhYWFhYWFhYWFhYWFhYWFhQqvP+q1d2FvFA3rFuWG6He+nRTLdlS3ODeCGzoiPoK6RboFpq+OgnHdQlVHrLI6ol23WFXRY2kdx2LdglXDREPLcRZ1i1YFkZaW47zULVwFrDJ4vXt1S1caLcqjOxlPPmhDXLd4pbEmCtA/t3gLbJo1tcPI7MIFK8HGaY2yVQH2zYi04uBs6iL2LyWwFZq7afOyJrmqAjqmJTTjSKxJrqoA+Yea9n49clWFrl/AaXmrRazK+JFXUotYlaHjBe0N9TA1euOt6XoDrMO10AzG1KAmuaoCfS/qH6OaD2uTrBpwwBGnJMKwQFPtqKctEkvdyBE27bmQm9+adNqdydS/p5xFMXYIDpPWuEMbVI/Zjz/h6iw2mNrW0WMpd9dQjoUsjGX2xjLiZ1fyV7llZuzCzUfZzsNSunPE3mWsT/2lobWT7lto7jM2bNVmxe1Kd43Zu06Y1CJ1DnAhRHl4ZcXjjDUi+x+SpDtF1Cy9+a8OmfMhojsqXVXJCfG4dWfRE3gabZYkm4uQLe4iodF1zy39LjY931XQohicZXzlllqyyqGWINPS2Bl2wpWXy1xC64rqE1z6jNX1J2TwgnjcSmiG0bllnjEGel7+JiUgTj5c0+4kYinoebkgv3hxqGk3Czl4SfFfDwxhkxVHDl4zsd2bpRdMjjNeeTF7Q8BrI7Z7MA6NzYt46a2vIj4fFPMB55fYL6bH8QPB+z+iLcblPXD+v4R2MDmk8WkGlGybE7oCswO0U9MRu8vEfTJdogOxLPpzaN0jXxKPMy9zwNO5y44zv1qKnhCt2aQR1DHJPqpNfB38LL/q+6zlWkup+TN+eUvid75rzYD/7mRh4D5F68w7LrcZl7GY1VsnbPnYhwTWY6sTuaT+EcYpw5ci0u/+6S7UTUPBTBSw04qG/VZvzwm/bz15O5aWeUEbIdD5ihtgLTVcffGHZavk/DLqkl6LIRW/K0Q1JAPkIzXxk0/xgrM10I6noTN5X5KuxJ9U9tacXJkbGV8jcbI/ykUSKJUmUDA+dD9nz7vDxEzfxCcvXs2qcQd41WQfXwXJxuPmPtkUMnZfgQXRhlxwwn3NpG0u0Nbgo9C4DM/vLFk1oNrgE+WxP9/vLFk1oMnLB6HJMnBnyarh+0F54fzh9QLGqJuVJIUrL68XMD5g9u6WDDSVlmxyCZqCX9xlY0HCUJyZR3byjN7cUtBHwVXzULAejU2pYeERn0O1lKZ4cSNFZbwgmrZaUWDqGQ/qJcqWVLDBa2KCStJOF75taKDz9SRlmojEggG91kWHZCoGsLbmxXmPEOIVNLSppAxdVzh3Ll9wdgY6MWKK3mxyUff+WHb2nWvwOlHbHSN39OR9lHXYDnXn97bRVHPFPHXpMeeWS8C8HstKFs2Pv+Ylw+oP+V4QB1nnSlMYaGjxua0pesc7puqWy3673gorgXkjMSMNNNX9XrwRWj9bJ93ut4jalHNLTcCbvG2X4hXMYZfuabZT+2lI1KmBq9iTx+8WfVBtgE4NjQyjC2dmKE5Jg1USYcG6/ysYwTBATQ1ZufGWTKLnhRQA9kFLiB2DWueOshZEEF02vjYvTFQb5A807eYtYQh9HizIvxfbPehHk8/N5shn+xbbMZ/NPCMRkYPXq9iOBqaZe0YX5MkXFdUkxkhMDQqcoOc1hPEmxlAhlLBXnzEHGfnYuMDRAYfdaKIhBcjghXb/low4DHYYXW0q47yDi6v2Z9pjwTO0GTy9gjgN4/yTrY0TaMjg8Ob67pvQcn958yEi4d0jdspy1BeuO5IPYKiW9w6OjFAejbpTiCcYl354AZ0o2CNyCJi76YJVDTLnQF8jruTc+2rW1PUNGJdVeYarEVcJ2gd8bunARF/5KStlVI6fuVyi3txQD0VXJfAEpUqFGr0yVGVoJ9cFSvwsEGMhB0PHoLjeLk7LkDsikUEuxbX1NTs51vvv0Lh0ZQRRGvN0cR2SKA6/4A6DKDBTCabAqCjNMkRipk6fn4DDkM4UDFusapKrKsDOE/1FdEtqkqsqQH5xDW7GedAM6PrllefbGOh4wV6JyfGzDOh47R+lv0T5MVe7ofNLow+bsJ+QCVy/qGXhwTA071BNPmCy64qElDDY0VR7g9iHq3QqeSSGY2hA5mdQv+Niz8faVLYmIXAESKlRDdXyJ2TFz5pa1fGMtZbWu9k+1g9wNzpeJu+t5kBfk9VmYHJQMQRcqG3WYJ0BUA+6KvH5ZiISM266jR+DgGAE+19xY60MDfzoJWqoY2JhYWFhYWFhYWFhYfEY8FzXrSsw4PevuHHUL2iFu+fl4JrCm/6T+7nUsDVy07PSGPg484LCtvcriP0rvEiU+9Jf6V+fN/wn2fgNXjQ/VuR1v1ojv8BL+PjB4/Dylo/Ji3bXdn752UfghZvquM38CLwgq418Y/UReEF3MW2PwGvOtD0Crw7TZiyvl1G7u961Rxl3pz+4YNry8Yomva8/f74W4wq7GSyvSScFFc5r0eND4XlnMjlc7juct76mx78gs37Vg3aWV/+Q/pMD3ZKODmTnen1Z/trXG+nXnkvw4r+0M5bqETuhS1K9ztnjzGkB7bpMiheRlyedvDpalAl5vECNZoYXWVhxAzJg6kEvo/K8hlhwsIfScGkhC3y8QCKPyotUecG0T76okBNA1xblhQVVSNkUvpb24Sa8SIpQot4lYQAvuCAv3JjGcp6+rqQH/PcKvEi+CR640BfqEb9AlJsX5o3hlPHW2v9SnZeP5+uwtoQ+twZx5sVU+J5wvHAaEU3Afd7jZrxw2JPcSEFHLcNFHHeUM11nXu4phJG2tIPjX5HP8MJ82e1QFeTCtxPHi1AemKV5IQOie2nFrlVyTRD1pVpLOGjTFqLmRF74e58kWPRNfmx0bfcSUZOU5YWFdmiuHckXogfEPSEpJT8vVK1LYk+Q19Slx7WFbizJC4c9pUVUvJTuT1eb3LywzuBfGnXDRV86rU11Vjle+MqEUsrYicqJNNJjeXn1Yc7saYoYSq/YFORzEmV4JVP+cSwCwhSOLsprS+rFCplvqElVWxfDW2V44dqzFkK/OG6YYC12cU5eWOJRzBH75p66Ao9RlOEFkGKyoJS5Yk/4hbJ8vBDSVIV2Lp4PK1sVXt/SL0M/ssUyYPIV5CVNVRgUbKUsmGFVeMkeI+gGNm8XvrFZjJcsIEjOFt32dI8V4TWQin3AUs0+DsqmWn+BFLzneAte8sPZvOBFF51fohKC18N/gqQKLzTaxFMz2bzgxG8+Xiv4NfFrAiAFX2GvCq8EDyULKhjmF7snB1olp573wDUQzIoX7iEAmNLl7A38TCFViWAssfoQ7NK89gau/nSKZetDeOPlePlwLo1aFpOsH8UDU7ntQ7AeNgFzA3uCERbzknYvWrhkmGPpBmYgopGSm5cHdUbW5AYwr5gjcShBWT8FrTQ03nA7S7UPyfm2/H4KikmmGLoGqsGBTmFpvxJcrRnaiBiLUGYYKehdwK9EzYtaHe15ZYaR0rOleeG7xM7R+190H7kAL1IRHWcTusuS/0UjfOXjG2igY+cQf5kuL35Jf/k4fEFB4acUqL9Mh6IQbqgQZ0NhI+WWI7Zpl3kjMUhVhBdR9mAPejRKHqe2XLIW/kkFXkMIm+PHdsXg08cijnvKGalCvIiCAjNbNOi2p3iUUke3SrwXxzNMMX2tqLK8PHgvWF9Q/8XZm/AiKhemmK42/lGscryIgoKz6UN9ybOb8CJ6AlwuXWH2DQyogrzIL0KkUhtWrmhHpcB3+ewpt4mIxP2UArzIpIXVQ/M53fA2+0R0JcRvuEbMZymOhr+4/1WEFxaZ3uMqxsXoD9X8FOrR4RQmC1Y8kP7hRyDvVwociEsPjjz1ulBBERMjkbfAvqfkJwvsV76F7TNCGs7z2wDaOqEfQrl8tiZJH0ef7evaQv2Q9NeEbzGN0lbhCzhJSN7fajwkP9kusL9cDH4S98Jd2IvffjG/ddgf9TrdbmfRsqcbLSwsLCwsLCwsLCwsLCws/hf4D66yjEC/qfA0AAAAAElFTkSuQmCC;" parent="YsTPFFB9O-CqiqmN0mU6-1" vertex="1">
          <mxGeometry x="247" y="460" width="95" height="103" as="geometry" />
        </mxCell>
        <mxCell id="pmen31rhCVbTpI0QnTw0-13" value="" style="html=1;shadow=0;dashed=0;align=center;verticalAlign=middle;shape=mxgraph.arrows2.tailedNotchedArrow;dy1=10;dx1=20;notch=20;arrowHead=20;dx2=25;dy2=30;" parent="YsTPFFB9O-CqiqmN0mU6-1" vertex="1">
          <mxGeometry x="400" y="329" width="100" height="60" as="geometry" />
        </mxCell>
        <mxCell id="pmen31rhCVbTpI0QnTw0-14" value="" style="html=1;shadow=0;dashed=0;align=center;verticalAlign=middle;shape=mxgraph.arrows2.tailedNotchedArrow;dy1=10;dx1=20;notch=20;arrowHead=20;dx2=25;dy2=30;" parent="YsTPFFB9O-CqiqmN0mU6-1" vertex="1">
          <mxGeometry x="650" y="334" width="100" height="60" as="geometry" />
        </mxCell>
        <mxCell id="Cj9y2AlTTPiBaZZikqI1-0" value="" style="image;aspect=fixed;html=1;points=[];align=center;fontSize=12;image=img/lib/azure2/databases/Azure_Cosmos_DB.svg;" vertex="1" parent="YsTPFFB9O-CqiqmN0mU6-1">
          <mxGeometry x="262.5" y="327" width="64" height="64" as="geometry" />
        </mxCell>
        <mxCell id="Cj9y2AlTTPiBaZZikqI1-2" value="" style="image;aspect=fixed;html=1;points=[];align=center;fontSize=12;image=img/lib/azure2/databases/Azure_Cosmos_DB.svg;" vertex="1" parent="YsTPFFB9O-CqiqmN0mU6-1">
          <mxGeometry x="813.5" y="295" width="64" height="64" as="geometry" />
        </mxCell>
      </root>
    </mxGraphModel>
  </diagram>
</mxfile>
